<svg width="218" height="46" viewBox="0 0 218 46" fill="none" xmlns="http://www.w3.org/2000/svg">
<path d="M30.8 32.68L31.88 34.4L24.52 38.92C23.4 39.2667 22.3067 39.4933 21.24 39.6C20.2 39.7333 19.08 39.8 17.88 39.8C14.92 39.8 12.2933 39.12 10 37.76C7.73333 36.4 5.96 34.5333 4.68 32.16C3.42667 29.76 2.8 27.04 2.8 24C2.8 20.88 3.74667 18 5.64 15.36C7.53333 12.6933 9.89333 10.6 12.72 9.08C15.5467 7.53333 18.24 6.76 20.8 6.76C22.32 6.76 24.0933 6.96 26.12 7.36C28.1467 7.76 29.6267 8.18667 30.56 8.64V16.4H29.04C26.3733 12.2133 22.8533 10.12 18.48 10.12C16.56 10.12 14.8133 10.64 13.24 11.68C11.6667 12.6933 10.4267 14.12 9.52 15.96C8.64 17.7733 8.2 19.8133 8.2 22.08C8.2 24.6933 8.62667 27.08 9.48 29.24C10.36 31.4 11.6933 33.1333 13.48 34.44C15.2667 35.7467 17.48 36.4 20.12 36.4C21.2933 36.4 22.2667 36.36 23.04 36.28C23.8133 36.2 24.7333 35.9467 25.8 35.52V26.08L19.64 24.36L20.44 22.76H34.6V24L30.8 27V32.68ZM52.2463 39.08C51.1796 39.2933 49.8996 39.4 48.4063 39.4C46.6463 39.4 45.0596 38.9467 43.6463 38.04C42.2596 37.1067 41.1663 35.8533 40.3663 34.28C39.5929 32.7067 39.2063 30.9733 39.2063 29.08C39.2063 27.0267 39.8329 25.1067 41.0863 23.32C42.3396 21.5067 43.8996 20.0667 45.7663 19C47.6596 17.9067 49.4863 17.36 51.2463 17.36C53.7796 17.36 55.7396 18.36 57.1263 20.36C58.5396 22.36 59.2463 25 59.2463 28.28H44.4463C44.6063 30.5467 45.2196 32.4 46.2863 33.84C47.3796 35.28 48.8596 36 50.7263 36C52.4596 36 54.9263 34.6533 58.1263 31.96L59.3263 33.48L52.2463 39.08ZM48.9263 20.72C46.0463 20.72 44.5396 22.6933 44.4063 26.64H53.7663C53.5263 25.2 53.2729 24.1067 53.0063 23.36C52.7663 22.5867 52.3263 21.96 51.6863 21.48C51.0729 20.9733 50.1529 20.72 48.9263 20.72ZM89.0694 39.04H81.4694V25.56C81.4694 24.0933 81.2427 23.0667 80.7894 22.48C80.336 21.8933 79.5227 21.6 78.3494 21.6C77.4694 21.6 76.5894 21.76 75.7094 22.08C74.856 22.4 73.8427 23.0133 72.6694 23.92V36.04L76.2694 37.44L75.4694 39.04H64.3094V37.8L67.8694 35V23.68L64.3094 21.6V20.36L71.1494 17L72.4694 22.2L78.1494 17.68C78.7094 17.4667 79.4427 17.36 80.3494 17.36C82.1627 17.36 83.6027 17.92 84.6694 19.04C85.736 20.1333 86.2694 21.6267 86.2694 23.52V36L89.8694 37.44L89.0694 39.04ZM104.219 39H93.0594V37.76L96.6194 34.96V23.28L93.0594 20.8V19.56L99.8994 17H101.419V36L105.019 37.4L104.219 39ZM98.8594 5C99.6594 5 100.313 5.29333 100.819 5.88C101.353 6.46666 101.619 7.2 101.619 8.08C101.619 8.69333 101.433 9.28 101.059 9.84C100.686 10.3733 100.219 10.8 99.6594 11.12C99.0994 11.44 98.5527 11.6 98.0194 11.6C97.2194 11.6 96.5527 11.3067 96.0194 10.72C95.5127 10.1333 95.2594 9.4 95.2594 8.52C95.2594 7.90667 95.446 7.33333 95.8194 6.8C96.1927 6.24 96.6594 5.8 97.2194 5.48C97.7794 5.16 98.326 5 98.8594 5ZM132.166 39H124.566V34.84L119.486 39.08C118.926 39.2933 118.193 39.4 117.286 39.4C115.473 39.4 114.033 38.8533 112.966 37.76C111.9 36.64 111.366 35.1333 111.366 33.24V23.68L107.806 21.6V20.36L114.646 17H116.166V31.24C116.166 32.7067 116.393 33.7333 116.846 34.32C117.3 34.9067 118.113 35.2 119.286 35.2C120.113 35.2 120.926 35.0533 121.726 34.76C122.526 34.44 123.473 33.8267 124.566 32.92V23.68L121.006 21.6V20.36L127.846 17H129.366V36L132.966 37.4L132.166 39ZM149.455 34.68C149.455 33.9333 149.042 33.2533 148.215 32.64C147.388 32 146.122 31.24 144.415 30.36C143.028 29.64 141.908 29.0133 141.055 28.48C140.202 27.9467 139.468 27.3333 138.855 26.64C138.268 25.92 137.975 25.1467 137.975 24.32C137.975 23.36 138.375 22.3333 139.175 21.24C139.975 20.1467 140.962 19.2267 142.135 18.48C143.308 17.7333 144.402 17.36 145.415 17.36C146.642 17.36 148.055 17.52 149.655 17.84C151.282 18.1333 152.455 18.4667 153.175 18.84V25H151.655C150.802 23.3467 149.815 22.0667 148.695 21.16C147.575 20.2267 146.428 19.76 145.255 19.76C144.428 19.76 143.762 19.9867 143.255 20.44C142.748 20.8667 142.495 21.4133 142.495 22.08C142.495 22.9067 142.922 23.6533 143.775 24.32C144.655 24.96 145.975 25.72 147.735 26.6C149.095 27.2933 150.188 27.8933 151.015 28.4C151.842 28.9067 152.535 29.5067 153.095 30.2C153.682 30.8667 153.975 31.6133 153.975 32.44C153.975 33.4267 153.548 34.4667 152.695 35.56C151.868 36.6267 150.842 37.5333 149.615 38.28C148.415 39.0267 147.308 39.4 146.295 39.4C144.988 39.4 143.428 39.2533 141.615 38.96C139.828 38.64 138.548 38.2933 137.775 37.92V31.76H139.295C140.228 33.4133 141.335 34.7067 142.615 35.64C143.895 36.5467 145.188 37 146.495 37C147.375 37 148.082 36.7733 148.615 36.32C149.175 35.8667 149.455 35.32 149.455 34.68Z" fill="#D1D5DB"/>
<path d="M174.59 31.042H170.684L166.064 23.587L165.077 22.873L165.392 22.243H166.568C167.52 22.243 168.269 22.005 168.815 21.529C169.375 21.039 169.655 20.374 169.655 19.534C169.655 18.428 169.347 17.511 168.731 16.783C168.115 16.041 167.219 15.67 166.043 15.67C165.259 15.67 164.538 15.901 163.88 16.363V29.446L166.085 30.202L165.665 31.042H159.281V30.391L161.255 28.837V16.069L159.071 15.355L159.491 14.515H161.927C163.201 14.515 164.454 14.473 165.686 14.389C166.582 14.333 167.247 14.305 167.681 14.305C168.619 14.305 169.452 14.494 170.18 14.872C170.922 15.25 171.489 15.761 171.881 16.405C172.287 17.049 172.49 17.756 172.49 18.526C172.49 19.226 172.273 19.898 171.839 20.542C171.405 21.172 170.831 21.725 170.117 22.201C169.417 22.663 168.675 23.013 167.891 23.251L169.256 23.713L172.511 28.963L175.01 30.202L174.59 31.042ZM187.076 31H183.086V29.173L180.713 31.042C180.433 31.154 180.083 31.21 179.663 31.21C178.459 31.21 177.584 30.909 177.038 30.307C176.506 29.705 176.24 28.984 176.24 28.144C176.24 27.64 176.422 27.143 176.786 26.653C177.15 26.163 177.668 25.701 178.34 25.267H183.086V23.923C183.086 23.013 182.841 22.369 182.351 21.991C181.875 21.613 181.217 21.424 180.377 21.424C179.509 21.424 178.445 21.949 177.185 22.999L176.555 22.201L179.579 19.807C180.139 19.695 180.811 19.639 181.595 19.639C182.869 19.639 183.856 19.954 184.556 20.584C185.256 21.2 185.606 22.103 185.606 23.293V29.425L187.496 30.16L187.076 31ZM180.335 29.425C181.189 29.425 182.106 29.033 183.086 28.249V26.128H179.369C179.187 26.352 179.054 26.576 178.97 26.8C178.9 27.024 178.865 27.269 178.865 27.535C178.865 28.053 178.998 28.501 179.264 28.879C179.53 29.243 179.887 29.425 180.335 29.425ZM202.177 31.021H198.187V23.944C198.187 23.174 198.068 22.635 197.83 22.327C197.592 22.019 197.165 21.865 196.549 21.865C196.087 21.865 195.625 21.949 195.163 22.117C194.715 22.285 194.183 22.607 193.567 23.083V29.446L195.457 30.181L195.037 31.021H189.178V30.37L191.047 28.9V22.957L189.178 21.865V21.214L192.769 19.45L193.462 22.18L196.444 19.807C196.738 19.695 197.123 19.639 197.599 19.639C198.551 19.639 199.307 19.933 199.867 20.521C200.427 21.095 200.707 21.879 200.707 22.873V29.425L202.597 30.181L202.177 31.021ZM210.131 30.16L209.711 31H203.852V30.349L205.721 28.879V15.964L203.852 14.662V14.011L207.443 12.667H208.241V29.425L210.131 30.16ZM216.851 31H213.302L209.354 25.456L213.281 22.159L211.265 20.689L211.685 19.849H216.704V20.5L211.832 24.595L215.381 29.425L217.271 30.16L216.851 31Z" fill="#D1D5DB"/>
<path d="M163.512 35.616C163.923 35.7333 164.245 35.9307 164.48 36.208C164.715 36.4853 164.832 36.8053 164.832 37.168C164.832 37.504 164.696 37.8213 164.424 38.12C164.157 38.4133 163.821 38.648 163.416 38.824C163.016 39 162.635 39.088 162.272 39.088C162.005 39.088 161.744 39.0747 161.488 39.048C161.061 39.0213 160.731 39.008 160.496 39.008H159.48V38.76L160.232 38.168V33.304L159.4 33.032L159.56 32.712H160.488C160.973 32.712 161.451 32.696 161.92 32.664C162.283 32.6427 162.549 32.632 162.72 32.632C163.077 32.632 163.392 32.7013 163.664 32.84C163.936 32.9787 164.144 33.168 164.288 33.408C164.437 33.6427 164.512 33.9067 164.512 34.2C164.512 34.4667 164.419 34.7227 164.232 34.968C164.051 35.208 163.811 35.4187 163.512 35.6V35.616ZM163.432 34.6C163.432 34.1787 163.32 33.8347 163.096 33.568C162.872 33.3013 162.539 33.168 162.096 33.168C161.776 33.168 161.488 33.2587 161.232 33.44V35.56H162.376C162.707 35.56 162.965 35.4773 163.152 35.312C163.339 35.1413 163.432 34.9013 163.432 34.592V34.6ZM162.496 38.504C162.88 38.504 163.184 38.408 163.408 38.216C163.637 38.024 163.752 37.7653 163.752 37.44C163.752 37.024 163.629 36.688 163.384 36.432C163.144 36.176 162.784 36.04 162.304 36.024C162.267 36.0293 162.216 36.032 162.152 36.032H161.232V38.296C161.589 38.44 162.011 38.512 162.496 38.512V38.504ZM169.977 35L167.953 39L166.289 41.112L165.985 40.872C166.289 40.5467 166.518 40.2613 166.673 40.016C166.833 39.7707 166.945 39.5227 167.009 39.272C167.073 39.0267 167.105 38.7333 167.105 38.392L166.097 35.952L165.353 35.52V35.272L166.721 34.6L167.025 35.808L168.001 38.192L169.129 35.848L168.065 35.072L168.225 34.752H169.977V35ZM176.268 32.64C176.817 32.64 177.302 32.7733 177.724 33.04C178.15 33.3013 178.478 33.6667 178.708 34.136C178.942 34.6053 179.06 35.136 179.06 35.728C179.06 36.336 178.881 36.8987 178.524 37.416C178.172 37.928 177.732 38.336 177.204 38.64C176.681 38.9387 176.18 39.088 175.7 39.088C175.454 39.088 175.206 39.0747 174.956 39.048C174.545 39.0213 174.228 39.008 174.004 39.008H172.988V38.76L173.74 38.168V33.304L172.908 33.032L173.068 32.712H173.996C174.502 32.712 174.996 32.696 175.476 32.664C175.838 32.6427 176.102 32.632 176.268 32.632V32.64ZM175.924 38.496C176.308 38.496 176.657 38.3947 176.972 38.192C177.286 37.984 177.532 37.6987 177.708 37.336C177.889 36.968 177.98 36.5573 177.98 36.104C177.98 35.56 177.894 35.0667 177.724 34.624C177.553 34.176 177.292 33.8187 176.94 33.552C176.593 33.2853 176.161 33.152 175.644 33.152C175.318 33.152 175.017 33.248 174.74 33.44V38.296C175.065 38.4293 175.46 38.496 175.924 38.496ZM184.769 39H183.249V38.168L182.233 39.016C182.121 39.0587 181.975 39.08 181.793 39.08C181.431 39.08 181.143 38.9707 180.929 38.752C180.716 38.528 180.609 38.2267 180.609 37.848V35.936L179.897 35.52V35.272L181.265 34.6H181.569V37.448C181.569 37.7413 181.615 37.9467 181.705 38.064C181.796 38.1813 181.959 38.24 182.193 38.24C182.359 38.24 182.521 38.2107 182.681 38.152C182.841 38.088 183.031 37.9653 183.249 37.784V35.936L182.537 35.52V35.272L183.905 34.6H184.209V38.4L184.929 38.68L184.769 39ZM187.883 39H185.651V38.752L186.363 38.192V35.856L185.651 35.36V35.112L187.019 34.6H187.323V38.4L188.043 38.68L187.883 39ZM186.811 32.2C186.971 32.2 187.102 32.2587 187.203 32.376C187.31 32.4933 187.363 32.64 187.363 32.816C187.363 32.9387 187.326 33.056 187.251 33.168C187.176 33.2747 187.083 33.36 186.971 33.424C186.859 33.488 186.75 33.52 186.643 33.52C186.483 33.52 186.35 33.4613 186.243 33.344C186.142 33.2267 186.091 33.08 186.091 32.904C186.091 32.7813 186.128 32.6667 186.203 32.56C186.278 32.448 186.371 32.36 186.483 32.296C186.595 32.232 186.704 32.2 186.811 32.2ZM193.592 39H192.072V38.424L191.328 39.016C191.158 39.0587 190.952 39.08 190.712 39.08C190.36 39.08 190.043 38.9893 189.76 38.808C189.483 38.6213 189.264 38.3707 189.104 38.056C188.95 37.7413 188.872 37.3947 188.872 37.016C188.872 36.6053 188.998 36.2213 189.248 35.864C189.499 35.5013 189.811 35.2133 190.184 35C190.563 34.7813 190.928 34.672 191.28 34.672C191.574 34.672 191.84 34.7547 192.08 34.92V33.272L191.368 32.776V32.528L192.736 32.016H193.04V38.4L193.752 38.68L193.592 39ZM191.12 38.4C191.28 38.4 191.432 38.3787 191.576 38.336C191.726 38.288 191.891 38.2 192.072 38.072V36.248C192.04 35.9813 191.915 35.7653 191.696 35.6C191.483 35.4293 191.19 35.344 190.816 35.344C190.214 35.344 189.912 35.7733 189.912 36.632C189.912 37.1333 190.016 37.5547 190.224 37.896C190.432 38.232 190.731 38.4 191.12 38.4ZM199.113 39H197.593V38.168L196.577 39.016C196.465 39.0587 196.318 39.08 196.137 39.08C195.774 39.08 195.486 38.9707 195.273 38.752C195.06 38.528 194.953 38.2267 194.953 37.848V35.936L194.241 35.52V35.272L195.609 34.6H195.913V37.448C195.913 37.7413 195.958 37.9467 196.049 38.064C196.14 38.1813 196.302 38.24 196.537 38.24C196.702 38.24 196.865 38.2107 197.025 38.152C197.185 38.088 197.374 37.9653 197.593 37.784V35.936L196.881 35.52V35.272L198.249 34.6H198.553V38.4L199.273 38.68L199.113 39ZM202.227 39H199.995V38.752L200.707 38.192V35.856L199.995 35.36V35.112L201.363 34.6H201.667V38.4L202.387 38.68L202.227 39ZM201.155 32.2C201.315 32.2 201.445 32.2587 201.547 32.376C201.653 32.4933 201.707 32.64 201.707 32.816C201.707 32.9387 201.669 33.056 201.595 33.168C201.52 33.2747 201.427 33.36 201.315 33.424C201.203 33.488 201.093 33.52 200.987 33.52C200.827 33.52 200.693 33.4613 200.587 33.344C200.485 33.2267 200.435 33.08 200.435 32.904C200.435 32.7813 200.472 32.6667 200.547 32.56C200.621 32.448 200.715 32.36 200.827 32.296C200.939 32.232 201.048 32.2 201.155 32.2ZM207.936 39H206.416V38.424L205.672 39.016C205.501 39.0587 205.296 39.08 205.056 39.08C204.704 39.08 204.387 38.9893 204.104 38.808C203.827 38.6213 203.608 38.3707 203.448 38.056C203.293 37.7413 203.216 37.3947 203.216 37.016C203.216 36.6053 203.341 36.2213 203.592 35.864C203.843 35.5013 204.155 35.2133 204.528 35C204.907 34.7813 205.272 34.672 205.624 34.672C205.917 34.672 206.184 34.7547 206.424 34.92V33.272L205.712 32.776V32.528L207.08 32.016H207.384V38.4L208.096 38.68L207.936 39ZM205.464 38.4C205.624 38.4 205.776 38.3787 205.92 38.336C206.069 38.288 206.235 38.2 206.416 38.072V36.248C206.384 35.9813 206.259 35.7653 206.04 35.6C205.827 35.4293 205.533 35.344 205.16 35.344C204.557 35.344 204.256 35.7733 204.256 36.632C204.256 37.1333 204.36 37.5547 204.568 37.896C204.776 38.232 205.075 38.4 205.464 38.4ZM213.457 39H211.937V38.168L210.921 39.016C210.809 39.0587 210.662 39.08 210.481 39.08C210.118 39.08 209.83 38.9707 209.617 38.752C209.403 38.528 209.297 38.2267 209.297 37.848V35.936L208.585 35.52V35.272L209.953 34.6H210.257V37.448C210.257 37.7413 210.302 37.9467 210.393 38.064C210.483 38.1813 210.646 38.24 210.881 38.24C211.046 38.24 211.209 38.2107 211.369 38.152C211.529 38.088 211.718 37.9653 211.937 37.784V35.936L211.225 35.52V35.272L212.593 34.6H212.897V38.4L213.617 38.68L213.457 39ZM216.57 39H214.338V38.752L215.05 38.192V35.856L214.338 35.36V35.112L215.706 34.6H216.01V38.4L216.73 38.68L216.57 39ZM215.498 32.2C215.658 32.2 215.789 32.2587 215.89 32.376C215.997 32.4933 216.05 32.64 216.05 32.816C216.05 32.9387 216.013 33.056 215.938 33.168C215.864 33.2747 215.77 33.36 215.658 33.424C215.546 33.488 215.437 33.52 215.33 33.52C215.17 33.52 215.037 33.4613 214.93 33.344C214.829 33.2267 214.778 33.08 214.778 32.904C214.778 32.7813 214.816 32.6667 214.89 32.56C214.965 32.448 215.058 32.36 215.17 32.296C215.282 32.232 215.392 32.2 215.498 32.2Z" fill="#D1D5DB"/>
</svg>
